<svg xmlns="http://www.w3.org/2000/svg" fill="none" viewBox="0 0 96 96" id="Dbt-Icon--Streamline-Svg-Logos">
  <desc>
    Dbt Icon Streamline Icon: https://streamlinehq.com
  </desc>
  <path fill="#ff694a" d="M91.0054 4.90959C93.2151 7.03436 94.66 9.83906 95 12.8987c0 1.2749 -0.34 2.1248 -1.1049 3.7397 -0.7649 1.6148 -10.1989 17.9331 -13.0036 22.4376 -1.6148 2.6347 -2.4647 5.7794 -2.4647 8.839 0 3.1447 0.8499 6.2044 2.4647 8.8391 2.8047 4.5045 12.2387 20.9077 13.0036 22.5226C94.66 80.8915 95 81.6564 95 82.9312c-0.34 3.0597 -1.6998 5.8645 -3.9096 7.9043 -2.1248 2.2097 -4.9294 3.6546 -7.9041 3.9095 -1.2749 0 -2.1248 -0.3399 -3.6546 -1.1049 -1.5299 -0.7649 -18.1881 -9.9439 -22.6927 -12.7486 -0.3399 -0.17 -0.6799 -0.4249 -1.1048 -0.595L33.4666 67.1229c0.5099 4.2496 2.3797 8.3292 5.4393 11.3039 0.595 0.5949 1.19 1.1049 1.8699 1.6148 -0.51 0.2549 -1.1049 0.51 -1.6148 0.8499 -4.5046 2.8047 -20.9078 12.2387 -22.5226 13.0036C15.0235 94.66 14.2586 95 12.8987 95c-3.05964 -0.34 -5.86434 -1.6998 -7.90413 -3.9096C2.78481 88.9656 1.33996 86.161 1 83.1013c0.08499 -1.2749 0.42496 -2.5497 1.10489 -3.6546 0.76492 -1.6149 10.19891 -18.0182 13.00361 -22.5227 1.6149 -2.6347 2.4647 -5.6944 2.4647 -8.839 0 -3.1447 -0.8498 -6.2044 -2.4647 -8.8391 -2.8047 -4.6744 -12.32369 -21.0777 -13.00361 -22.6926C1.42496 15.4484 1.08499 14.1736 1 12.8987c0.33996 -3.05964 1.69982 -5.86434 3.90959 -7.98911C7.03436 2.69982 9.83906 1.33996 12.8987 1c1.2749 0.08499 2.5497 0.42496 3.7397 1.10489 1.3598 0.59493 13.3435 7.56419 19.7178 11.30381l1.4449 0.8499c0.5099 0.34 0.9349 0.5949 1.2749 0.7649l0.6799 0.4249 22.6925 13.4287c-0.5099 -5.0995 -3.1446 -9.7741 -7.2242 -12.9187 0.51 -0.2549 1.1049 -0.51 1.6148 -0.8499 4.5046 -2.8047 20.9078 -12.32369 22.5226 -13.00361 1.105 -0.67993 2.3798 -1.0199 3.7397 -1.10489 2.9747 0.33996 5.7794 1.69982 7.9041 3.90959ZM49.1898 54.0344l4.8446 -4.8446c0.6799 -0.6799 0.6799 -1.6997 0 -2.3796l-4.8446 -4.8446c-0.6799 -0.6799 -1.6997 -0.6799 -2.3796 0l-4.8446 4.8446c-0.6799 0.6799 -0.6799 1.6997 0 2.3796l4.8446 4.8446c0.5949 0.5949 1.6997 0.5949 2.3796 0Z" stroke-width="1"></path>
</svg>