<?xml version="1.0" encoding="UTF-8"?>
<svg version="1.1" xmlns="http://www.w3.org/2000/svg" width="280" height="280">
<path d="M0 0 C5.06518527 1.90955866 10.0697901 3.53324188 15.3125 4.875 C20.80627296 6.29220145 26.14689059 7.8820329 31.5 9.75 C38.58636244 12.16933481 45.6583548 14.55639691 52.875 16.5625 C59.64118256 18.45055778 66.31573336 20.59117983 73 22.75 C80.77895528 25.26208611 88.54978672 27.71304026 96.4375 29.86328125 C107.52915519 33.07476815 118.59724544 37.11574848 129.5 40.75 C129.5 104.77 129.5 168.79 129.5 234.75 C123.47443759 237.16022497 117.80857354 239.39488893 111.625 241.125 C110.15868378 241.54628239 108.69254574 241.96818534 107.2265625 242.390625 C106.46375977 242.60912109 105.70095703 242.82761719 104.91503906 243.05273438 C100.60147735 244.29813796 96.30087296 245.58658674 92 246.875 C91.18805176 247.11653809 90.37610352 247.35807617 89.53955078 247.60693359 C85.68238732 248.76147484 81.84646648 249.95538861 78.03125 251.2421875 C72.38554809 253.14422201 66.67361412 254.81256321 60.9609375 256.5 C54.62923591 258.38186796 48.36973816 260.43179856 42.11767578 262.56152344 C31.97716491 266.01489829 21.84497491 269.31074318 11.50219727 272.10791016 C2.79922628 274.37123945 2.79922628 274.37123945 -5.5 277.75 C-12.89478115 278.50201164 -18.72557747 276.55843941 -25.640625 274.09765625 C-29.03686592 272.88915213 -32.45772799 271.88382824 -35.9375 270.9375 C-42.47299629 269.1146745 -48.88435578 266.98154867 -55.3125 264.8125 C-64.30764992 261.78116232 -73.32520989 258.93848104 -82.45263672 256.33544922 C-86.13970518 255.28112175 -89.82007245 254.20394639 -93.5 253.125 C-94.21736328 252.91480225 -94.93472656 252.70460449 -95.67382812 252.48803711 C-99.96994274 251.22189347 -104.22872703 249.88253678 -108.46484375 248.4296875 C-111.53607376 247.40397921 -114.64182802 246.50030016 -117.75 245.59375 C-120.07833956 244.87937309 -122.38336465 244.12409654 -124.69140625 243.34765625 C-127.93671218 242.25871318 -131.19169496 241.21698509 -134.46484375 240.21484375 C-135.28404297 239.96283203 -136.10324219 239.71082031 -136.94726562 239.45117188 C-138.63351506 238.93405538 -140.32106268 238.4211565 -142.00976562 237.91210938 C-142.81994141 237.66138672 -143.63011719 237.41066406 -144.46484375 237.15234375 C-145.1930835 236.93054443 -145.92132324 236.70874512 -146.67163086 236.48022461 C-148.5 235.75 -148.5 235.75 -150.5 233.75 C-150.69746394 231.20872281 -150.76929831 228.77633688 -150.75396729 226.23388672 C-150.75708727 225.44954695 -150.76020725 224.66520718 -150.76342177 223.85709953 C-150.77143386 221.21455364 -150.76506572 218.57223533 -150.75878906 215.9296875 C-150.7614975 214.04103459 -150.7650576 212.15238274 -150.76940918 210.26373291 C-150.77855295 205.12335894 -150.77498076 199.98306495 -150.76865101 194.84268951 C-150.76360128 189.47308633 -150.76827959 184.10349016 -150.77142334 178.73388672 C-150.77506599 169.71515671 -150.77025606 160.69645942 -150.76074219 151.67773438 C-150.74985707 141.23831752 -150.75338244 130.79897878 -150.764395 120.35956383 C-150.77345937 111.4100903 -150.77475732 102.46064034 -150.76951766 93.51116371 C-150.76639327 88.16007837 -150.76600143 82.80902979 -150.77259064 77.45794678 C-150.77835114 72.42816242 -150.77439106 67.39847915 -150.76280212 62.36870575 C-150.76014858 60.51833006 -150.76093239 58.66794592 -150.76532745 56.81757355 C-150.77075708 54.3003037 -150.76398051 51.78336197 -150.75396729 49.26611328 C-150.75842873 48.52624113 -150.76289017 47.78636898 -150.76748681 47.02407646 C-150.72830015 41.97830015 -150.72830015 41.97830015 -148.5 39.75 C-145.64992879 38.86609869 -142.82225923 38.06366732 -139.9375 37.3125 C-138.28990798 36.8701869 -136.64276523 36.42619665 -134.99609375 35.98046875 C-134.21089355 35.76825684 -133.42569336 35.55604492 -132.61669922 35.33740234 C-129.53577641 34.48241961 -126.51887436 33.47921804 -123.5 32.4296875 C-120.44439963 31.39126081 -117.34773931 30.4972573 -114.25 29.59375 C-111.92217901 28.8795322 -109.61927903 28.12213589 -107.3125 27.34375 C-101.57091724 25.41879883 -95.76781862 23.71526335 -89.9609375 22 C-85.95218308 20.80854358 -81.96276903 19.58717338 -78 18.25 C-72.36531078 16.34866374 -66.66337832 14.68441329 -60.9609375 13 C-55.43447298 11.35745946 -49.95982774 9.60118126 -44.5 7.75 C-41.02152595 6.58126518 -37.541971 5.41576278 -34.0625 4.25 C-33.18529297 3.95480469 -32.30808594 3.65960937 -31.40429688 3.35546875 C-28.77324878 2.47522127 -26.13751144 1.6106668 -23.5 0.75 C-22.62843262 0.45738281 -21.75686523 0.16476563 -20.85888672 -0.13671875 C-13.20452146 -2.60372053 -7.62646155 -3.01426814 0 0 Z " fill="#B2E6FB" transform="translate(150.5,2.25)"/>
<path d="M0 0 C0.73404053 0.19021729 1.46808105 0.38043457 2.22436523 0.57641602 C7.3819494 1.94293613 12.45760467 3.52986264 17.4921875 5.296875 C22.11121483 6.88646545 26.78437841 8.29684689 31.45922852 9.71264648 C36.51703225 11.26703225 36.51703225 11.26703225 37.625 12.375 C37.71905142 14.3693173 37.74243249 16.36699543 37.73852539 18.36352539 C37.73844986 19.64477798 37.73837433 20.92603058 37.73829651 22.24610901 C37.73318909 23.65495848 37.72797309 25.06380756 37.72265625 26.47265625 C37.72079202 27.90612234 37.71936814 29.33958907 37.71836853 30.77305603 C37.71454372 34.55259957 37.70471377 38.3321049 37.69366455 42.1116333 C37.68344963 45.96569298 37.67887074 49.81975882 37.67382812 53.67382812 C37.66309146 61.24090287 37.64601549 68.80794609 37.625 76.375 C38.27577011 76.49802994 38.92654022 76.62105988 39.59703064 76.74781799 C44.40865175 77.67959647 49.08725144 78.69404113 53.75390625 80.21484375 C54.80900391 80.55580078 55.86410156 80.89675781 56.95117188 81.24804688 C58.01916016 81.59931641 59.08714844 81.95058594 60.1875 82.3125 C61.25935547 82.65990234 62.33121094 83.00730469 63.43554688 83.36523438 C69.50924843 85.33779433 75.56654051 87.3555135 81.625 89.375 C81.625 111.485 81.625 133.595 81.625 156.375 C74.695 158.355 67.765 160.335 60.625 162.375 C53.65182698 164.74025331 53.65182698 164.74025331 46.703125 167.17578125 C39.41916494 169.49909813 33.31171277 169.85968662 26 167.375 C24.94558716 167.04302612 24.94558716 167.04302612 23.86987305 166.7043457 C22.3148528 166.21429796 20.76211953 165.71694981 19.21142578 165.21337891 C15.32190884 163.95260855 11.42137117 162.7286441 7.51611328 161.51757812 C5.4973098 160.89128477 3.48121941 160.25616312 1.46826172 159.61132812 C-6.89264807 157.00315222 -12.18767348 157.01277199 -20.5 160 C-22.09435142 160.54761711 -23.68943356 161.09311039 -25.28515625 161.63671875 C-26.11418457 161.9207959 -26.94321289 162.20487305 -27.79736328 162.49755859 C-32.16302732 163.98365412 -36.54036944 165.42232199 -40.9375 166.8125 C-41.74525879 167.08336426 -42.55301758 167.35422852 -43.38525391 167.63330078 C-51.68265622 170.21779365 -58.26552521 169.03703867 -66.375 166.125 C-72.68408335 163.90869057 -79.03598229 161.96177957 -85.4765625 160.16308594 C-86.14429688 159.97262695 -86.81203125 159.78216797 -87.5 159.5859375 C-88.08007812 159.42399902 -88.66015625 159.26206055 -89.2578125 159.09521484 C-92.36526536 158.03813621 -95.35806434 156.66797243 -98.375 155.375 C-98.375 133.595 -98.375 111.815 -98.375 89.375 C-90.7572303 86.32789212 -83.31502087 83.64492773 -75.50512695 81.22802734 C-73.54569292 80.61978277 -71.59028062 79.99961952 -69.63476562 79.37890625 C-68.38759766 78.99089844 -67.14042969 78.60289062 -65.85546875 78.203125 C-64.73035889 77.8515332 -63.60524902 77.49994141 -62.44604492 77.13769531 C-59.375 76.375 -59.375 76.375 -54.375 76.375 C-54.375 55.255 -54.375 34.135 -54.375 12.375 C-46.70025711 9.30510284 -39.24544392 6.65130713 -31.375 4.25 C-30.26382813 3.90324219 -29.15265625 3.55648437 -28.0078125 3.19921875 C-9.16314505 -2.58720267 -9.16314505 -2.58720267 0 0 Z " fill="#FBF9F3" transform="translate(148.375,60.625)"/>
<path d="M0 0 C8.37078779 2.28294213 16.69046306 4.63865194 25 7.125 C25.96894196 7.4146312 25.96894196 7.4146312 26.9574585 7.71011353 C37.54920485 10.88336042 48.04580771 14.29741409 58.5222168 17.83447266 C67.32879268 20.80052897 76.18381695 23.53138871 85.09960938 26.14746094 C90.59159221 27.76177104 96.07853141 29.39287671 101.56381226 31.02978516 C103.50305298 31.60729651 105.44352526 32.18066734 107.3840332 32.75390625 C108.59921631 33.11613281 109.81439941 33.47835937 111.06640625 33.8515625 C112.13834229 34.16947754 113.21027832 34.48739258 114.31469727 34.81494141 C119.25673417 36.40411975 124.12128472 38.22592172 129 40 C129 96.76 129 153.52 129 212 C122.52062779 212 119.29874923 211.76991784 113.47265625 209.84765625 C112.79827011 209.62806747 112.12388397 209.4084787 111.42906189 209.18223572 C110.01983544 208.72111707 108.6124082 208.25446535 107.20678711 207.7824707 C105.04717654 207.05735496 102.88272101 206.34858679 100.71679688 205.64257812 C90.17721461 202.17721461 90.17721461 202.17721461 89 201 C88.87624831 198.97585009 88.82202689 196.94742263 88.79467773 194.91967773 C88.7647599 192.96776772 88.7647599 192.96776772 88.73423767 190.97642517 C88.71725201 189.5454826 88.70037325 188.11453875 88.68359375 186.68359375 C88.66303094 185.2277008 88.64203466 183.77181391 88.62062073 182.31593323 C88.56533039 178.47727353 88.51595198 174.63855935 88.46777344 170.79980469 C88.41760909 166.88536712 88.36189664 162.97100904 88.30664062 159.05664062 C88.19897397 151.37116099 88.09754807 143.68561543 88 136 C87.4106517 135.83264343 86.82130341 135.66528687 86.21409607 135.49285889 C83.49531107 134.72019378 80.77695132 133.94604246 78.05859375 133.171875 C76.66852112 132.77718018 76.66852112 132.77718018 75.25036621 132.37451172 C65.09087192 129.47879969 55.02246306 126.34082102 45 123 C44.67 101.88 44.34 80.76 44 59 C33.62379504 55.75743595 23.24652039 52.54026873 12.83398438 49.41992188 C11.88458984 49.13310547 10.93519531 48.84628906 9.95703125 48.55078125 C9.12147705 48.29981689 8.28592285 48.04885254 7.42504883 47.7902832 C4.91116024 46.9710486 2.4549003 45.98196012 0 45 C0 30.15 0 15.3 0 0 Z " fill="#257EA0" transform="translate(141,14)"/>
<path d="M0 0 C0 14.85 0 29.7 0 45 C-9.56360987 48.18786996 -19.11082184 51.31535559 -28.75 54.25 C-31.0157068 54.94244073 -33.28133568 55.6351365 -35.546875 56.328125 C-37.01398926 56.77526855 -37.01398926 56.77526855 -38.51074219 57.23144531 C-40.34756186 57.79856068 -42.17627477 58.39209159 -44 59 C-44.33 80.12 -44.66 101.24 -45 123 C-57.375 126.465 -57.375 126.465 -70 130 C-79.57524726 132.28369059 -79.57524726 132.28369059 -89 137 C-89.12375169 139.02414991 -89.17797311 141.05257737 -89.20532227 143.08032227 C-89.22526749 144.38159561 -89.24521271 145.68286896 -89.26576233 147.02357483 C-89.28274799 148.4545174 -89.29962675 149.88546125 -89.31640625 151.31640625 C-89.33696906 152.7722992 -89.35796534 154.22818609 -89.37937927 155.68406677 C-89.43466961 159.52272647 -89.48404802 163.36144065 -89.53222656 167.20019531 C-89.58239091 171.11463288 -89.63810336 175.02899096 -89.69335938 178.94335938 C-89.80102603 186.62883901 -89.90245193 194.31438457 -90 202 C-93.45787814 203.10559552 -96.91638665 204.20920678 -100.375 205.3125 C-101.34050781 205.62123047 -102.30601563 205.92996094 -103.30078125 206.24804688 C-105.24461466 206.86772531 -107.18961281 207.48376171 -109.13574219 208.09619141 C-111.00937531 208.68741113 -112.8799992 209.2882756 -114.74707031 209.89990234 C-115.60655273 210.17398926 -116.46603516 210.44807617 -117.3515625 210.73046875 C-118.10518066 210.97563232 -118.85879883 211.2207959 -119.63525391 211.47338867 C-122 212 -122 212 -128 212 C-128 155.24 -128 98.48 -128 40 C-123.1612183 37.92623641 -118.98601982 36.32661357 -114 34.9375 C-105.43305674 32.49769773 -96.96908586 29.75536017 -88.5 27 C-79.62411744 24.11514116 -70.74829811 21.2638738 -61.77832031 18.68261719 C-56.13930684 17.05723774 -50.54721236 15.29960734 -44.95532227 13.51953125 C-35.9435605 10.65409464 -26.90858695 7.86379051 -17.87402344 5.07128906 C-16.68196289 4.70229492 -15.48990234 4.33330078 -14.26171875 3.953125 C-13.19912842 3.62473633 -12.13653809 3.29634766 -11.04174805 2.95800781 C-8.92994348 2.29288853 -6.8276039 1.59725447 -4.73364258 0.87792969 C-2 0 -2 0 0 0 Z " fill="#68AFC9" transform="translate(139,14)"/>
<path d="M0 0 C2.2435063 0.73393691 4.49330912 1.44445499 6.74560547 2.15087891 C7.4069751 2.37420898 8.06834473 2.59753906 8.74975586 2.82763672 C17.60664005 5.5679128 25.40921285 2.89330363 33.87060547 -0.09912109 C35.72193986 -0.73129992 37.57350214 -1.36281176 39.42529297 -1.99365234 C41.8640853 -2.83383796 44.3021514 -3.67599171 46.73876953 -4.52246094 C48.48632767 -5.12439763 50.24071518 -5.70640795 51.99560547 -6.28662109 C53.39939453 -6.76615234 53.39939453 -6.76615234 54.83154297 -7.25537109 C61.90798798 -8.60326538 68.84050187 -5.59687899 75.49560547 -3.41162109 C76.43791016 -3.10740234 77.38021484 -2.80318359 78.35107422 -2.48974609 C84.11895393 -0.62296345 89.87249565 1.286668 95.62060547 3.21337891 C92.969107 4.60351372 90.38796761 5.69145102 87.53076172 6.58056641 C86.75394043 6.82403809 85.97711914 7.06750977 85.17675781 7.31835938 C84.35385254 7.57246582 83.53094727 7.82657227 82.68310547 8.08837891 C81.82410645 8.35666504 80.96510742 8.62495117 80.08007812 8.90136719 C75.55647492 10.31197138 71.02716658 11.70356351 66.49560547 13.08837891 C62.42582736 14.33234882 58.36939956 15.61247717 54.31982422 16.92041016 C42.6444363 20.68992249 30.94331029 24.34352605 19.18310547 27.83837891 C1.67551577 32.99092743 1.67551577 32.99092743 -15.53710938 39.04248047 C-24.31910436 42.28663934 -31.20417441 41.75219239 -39.87939453 38.52587891 C-41.47093373 37.96470129 -43.06340546 37.40616228 -44.65673828 36.85009766 C-45.45063965 36.57085449 -46.24454102 36.29161133 -47.0625 36.00390625 C-50.49067178 34.8342097 -53.95881447 33.82997144 -57.44189453 32.83837891 C-64.63468901 30.77190757 -71.7577403 28.51231943 -78.87939453 26.21337891 C-86.06365646 23.89436398 -93.25064006 21.61812868 -100.50439453 19.52587891 C-106.69864207 17.73821834 -112.8053947 15.75260494 -118.91064453 13.68212891 C-128.99852866 10.31950086 -139.20865203 7.31394727 -149.37939453 4.21337891 C-148.37939453 2.21337891 -148.37939453 2.21337891 -146.14208984 1.37548828 C-145.17368164 1.10542969 -144.20527344 0.83537109 -143.20751953 0.55712891 C-141.62197266 0.10660156 -141.62197266 0.10660156 -140.00439453 -0.35302734 C-138.33376953 -0.81515625 -138.33376953 -0.81515625 -136.62939453 -1.28662109 C-134.44647378 -1.89896623 -132.2641587 -2.51347555 -130.08251953 -3.13037109 C-129.10959961 -3.40042969 -128.13667969 -3.67048828 -127.13427734 -3.94873047 C-124.37187468 -4.74142072 -124.37187468 -4.74142072 -121.76123047 -5.86303711 C-112.71131304 -9.37224556 -103.02724164 -4.75373398 -94.37939453 -1.84912109 C-79.11117158 3.24086621 -69.95230375 4.99183309 -54.31689453 -0.03662109 C-52.98077696 -0.45090351 -51.64418988 -0.86367485 -50.30712891 -1.27490234 C-45.05529507 -2.90354931 -39.83283574 -4.56219818 -34.71533203 -6.57958984 C-23.84673575 -10.51213815 -10.41287871 -3.44246821 0 0 Z " fill="#7FC5E0" transform="translate(167.37939453125,224.78662109375)"/>
<path d="M0 0 C0 19.47 0 38.94 0 59 C-8.91 61.475 -8.91 61.475 -18 64 C-22.30233357 65.3338102 -26.58420497 66.70170414 -30.86132812 68.11132812 C-36.69413555 70 -36.69413555 70 -40 70 C-40 50.86 -40 31.72 -40 12 C-35.79464869 9.89732434 -32.51133348 8.41241736 -28.125 7.125 C-24.32744764 5.9988293 -20.5392274 4.86067578 -16.7734375 3.6328125 C-16.06300293 3.40319824 -15.35256836 3.17358398 -14.62060547 2.93701172 C-13.23510712 2.48815236 -11.85122587 2.03426193 -10.46923828 1.57470703 C-6.67967947 0.35926023 -4.08002352 0 0 0 Z " fill="#FEC334" transform="translate(138,155)"/>
<path d="M0 0 C0 19.14 0 38.28 0 58 C-11.25590817 62.50236327 -11.25590817 62.50236327 -16.26953125 63.88671875 C-17.34267578 64.18513672 -18.41582031 64.48355469 -19.52148438 64.79101562 C-20.60751953 65.08685547 -21.69355469 65.38269531 -22.8125 65.6875 C-23.91787109 65.99494141 -25.02324219 66.30238281 -26.16210938 66.61914062 C-30.77065808 67.89171268 -35.30734458 69.06146892 -40 70 C-40 50.86 -40 31.72 -40 12 C-33.255716 8.627858 -33.255716 8.627858 -30.1171875 7.75390625 C-29.43043945 7.55821045 -28.74369141 7.36251465 -28.03613281 7.16088867 C-27.32295898 6.96342041 -26.60978516 6.76595215 -25.875 6.5625 C-19.67563162 4.80458036 -13.57901701 2.89070186 -7.515625 0.69921875 C-5 0 -5 0 0 0 Z " fill="#FEC333" transform="translate(226,155)"/>
<path d="M0 0 C3.54892688 0.88723172 6.99786154 1.90568928 10.48828125 2.99609375 C11.10970505 3.18969986 11.73112885 3.38330597 12.37138367 3.58277893 C14.35208718 4.19996265 16.33233441 4.81859277 18.3125 5.4375 C20.28198437 6.05273723 22.25157521 6.66762379 24.22148132 7.2815094 C26.01681821 7.84103079 27.81176508 8.40180318 29.60668945 8.96264648 C33.05834875 10.01783753 36.52952718 11.00843634 40 12 C40 31.47 40 50.94 40 71 C26.303446 68.717241 13.10512747 63.36837582 0 59 C0 39.53 0 20.06 0 0 Z " fill="#F99B37" transform="translate(98,77)"/>
<path d="M0 0 C5.86732812 1.30385069 11.57388549 2.65664261 17.3125 4.375 C18.04017578 4.59124023 18.76785156 4.80748047 19.51757812 5.03027344 C37.37939177 10.37939177 37.37939177 10.37939177 39 12 C39.09376053 13.81055025 39.1174411 15.62477201 39.11352539 17.43774414 C39.11344986 18.59887222 39.11337433 19.76000031 39.11329651 20.95631409 C39.10813522 22.219832 39.10297394 23.48334991 39.09765625 24.78515625 C39.0962413 26.07111191 39.09482635 27.35706757 39.09336853 28.68199158 C39.08954418 32.10643443 39.07971462 35.53083509 39.06866455 38.95526123 C39.05844864 42.44738189 39.05387053 45.93950934 39.04882812 49.43164062 C39.03809227 56.28777778 39.02101684 63.14388687 39 70 C37.42706109 69.69895855 35.85485578 69.39408282 34.28295898 69.08764648 C33.40735825 68.91829086 32.53175751 68.74893524 31.62962341 68.57444763 C27.66399357 67.70814615 23.88564283 66.41164463 20.0625 65.0625 C13.42280232 62.74246265 6.81475005 60.8585682 0 59 C0 39.53 0 20.06 0 0 Z " fill="#F99934" transform="translate(54,155)"/>
<path d="M0 0 C6.07094387 1.32836297 12.07583274 2.76908453 18.0625 4.4375 C18.81337891 4.64181641 19.56425781 4.84613281 20.33789062 5.05664062 C26.81740948 6.85432909 32.96870128 8.98435064 39 12 C39 31.14 39 50.28 39 70 C25.47658689 66.61914672 25.47658689 66.61914672 20.17578125 64.9921875 C18.48098633 64.47205078 18.48098633 64.47205078 16.75195312 63.94140625 C15.61693359 63.58949219 14.48191406 63.23757812 13.3125 62.875 C12.13494141 62.51535156 10.95738281 62.15570313 9.74414062 61.78515625 C8.62845703 61.44097656 7.51277344 61.09679687 6.36328125 60.7421875 C5.35563721 60.4313623 4.34799316 60.12053711 3.30981445 59.80029297 C1 59 1 59 0 58 C-0.09376053 56.18944975 -0.1174411 54.37522799 -0.11352539 52.56225586 C-0.11344986 51.40112778 -0.11337433 50.23999969 -0.11329651 49.04368591 C-0.10813522 47.780168 -0.10297394 46.51665009 -0.09765625 45.21484375 C-0.0962413 43.92888809 -0.09482635 42.64293243 -0.09336853 41.31800842 C-0.08954418 37.89356557 -0.07971462 34.46916491 -0.06866455 31.04473877 C-0.05844864 27.55261811 -0.05387053 24.06049066 -0.04882812 20.56835938 C-0.03809227 13.71222222 -0.02101684 6.85611313 0 0 Z " fill="#F99A34" transform="translate(142,155)"/>
<path d="M0 0 C0 19.14 0 38.28 0 58 C-7.23919497 60.41306499 -14.4859115 62.78919769 -21.75 65.125 C-23.41482422 65.66447266 -23.41482422 65.66447266 -25.11328125 66.21484375 C-26.18449219 66.55902344 -27.25570312 66.90320313 -28.359375 67.2578125 C-29.32327148 67.5686377 -30.28716797 67.87946289 -31.28027344 68.19970703 C-33.81510038 68.94559237 -36.40902221 69.48180444 -39 70 C-39 50.53 -39 31.06 -39 11 C-17.85 3.95 -17.85 3.95 -11.625 2.125 C-10.92890625 1.91359375 -10.2328125 1.7021875 -9.515625 1.484375 C-6.15720576 0.49357699 -3.53992263 0 0 0 Z " fill="#FEC230" transform="translate(182,78)"/>
<path d="M0 0 C0.81895752 0.26699707 1.63791504 0.53399414 2.48168945 0.80908203 C8.55525683 2.8046056 14.59002838 4.90588163 20.5625 7.1875 C15.68581698 10.43862202 10.01712169 11.86016951 4.47607422 13.66577148 C2.32942574 14.36945167 0.19038106 15.09357672 -1.94921875 15.81835938 C-3.32509975 16.26951537 -4.70139001 16.71942554 -6.078125 17.16796875 C-7.32110352 17.57942139 -8.56408203 17.99087402 -9.84472656 18.41479492 C-15.54178558 19.64007297 -20.39538959 18.34509814 -25.87109375 16.6640625 C-26.85013672 16.365 -27.82917969 16.0659375 -28.83789062 15.7578125 C-29.84013672 15.44585937 -30.84238281 15.13390625 -31.875 14.8125 C-32.87337891 14.50828125 -33.87175781 14.2040625 -34.90039062 13.890625 C-40.49299578 12.16982341 -45.98338558 10.30673874 -51.4375 8.1875 C-50.4375 6.1875 -50.4375 6.1875 -48.52148438 5.46777344 C-47.69970703 5.24637695 -46.87792969 5.02498047 -46.03125 4.796875 C-42.36982377 3.7630299 -38.79201886 2.63508986 -35.21875 1.328125 C-34.34863281 1.01746094 -33.47851562 0.70679687 -32.58203125 0.38671875 C-30.81398794 -0.2478965 -29.05088874 -0.89645254 -27.29296875 -1.55859375 C-17.51569209 -4.99150422 -9.59192491 -3.22676286 0 0 Z " fill="#FED223" transform="translate(155.4375,66.8125)"/>
<path d="M0 0 C0.73436279 0.19005615 1.46872559 0.3801123 2.2253418 0.57592773 C4.44860892 1.15335175 6.66220471 1.75872662 8.875 2.375 C9.65149902 2.59051514 10.42799805 2.80603027 11.22802734 3.02807617 C17.26356886 4.73164632 23.16345761 6.69880818 29 9 C24.20039282 12.19973812 18.65293307 13.56205435 13.18945312 15.29589844 C10.96712992 16.01057062 8.75766321 16.75831081 6.546875 17.5078125 C5.07338937 17.98583454 3.59944062 18.46243174 2.125 18.9375 C1.44872559 19.17315674 0.77245117 19.40881348 0.07568359 19.65161133 C-5.46348686 21.37998896 -9.51547836 20.66589734 -15 19 C-15.76924805 18.77320557 -16.53849609 18.54641113 -17.33105469 18.31274414 C-19.70941093 17.58980875 -22.07378116 16.83185881 -24.4375 16.0625 C-26.09878983 15.52942251 -27.76024681 14.99686561 -29.421875 14.46484375 C-30.20884766 14.21202637 -30.99582031 13.95920898 -31.80664062 13.69873047 C-35.854515 12.40921394 -39.92554863 11.20229712 -44 10 C-41.61226218 7.61226218 -40.12403818 7.36344674 -36.875 6.5625 C-33.56552399 5.70623195 -30.36253793 4.82976026 -27.1875 3.5625 C-23.51416179 2.15665451 -19.8098723 0.88312842 -16.0625 -0.3125 C-14.37833984 -0.86357422 -14.37833984 -0.86357422 -12.66015625 -1.42578125 C-7.96447453 -2.16245704 -4.51629917 -1.27529708 0 0 Z " fill="#FED223" transform="translate(191,142)"/>
<path d="M0 0 C0.67817276 0.2205455 1.35634552 0.441091 2.05506897 0.6683197 C4.19606958 1.36594183 6.33435704 2.07149038 8.47265625 2.77734375 C9.93407198 3.25508624 11.39565909 3.73230482 12.85742188 4.20898438 C16.41867548 5.37156016 19.97752033 6.54124633 23.53515625 7.71484375 C18.1386308 10.63799673 12.18493412 12.28828018 6.37329102 14.19311523 C4.94276674 14.66486833 3.51434252 15.14303917 2.08813477 15.62768555 C0.01642309 16.33149796 -2.06097863 17.01535613 -4.140625 17.6953125 C-5.37723877 18.10676514 -6.61385254 18.51821777 -7.88793945 18.94213867 C-14.2715972 20.32117606 -19.89460788 18.44403779 -25.96484375 16.46484375 C-26.98674805 16.13867065 -26.98674805 16.13867065 -28.02929688 15.8059082 C-35.19576979 13.50746145 -42.33440239 11.1223922 -49.46484375 8.71484375 C-47.3626037 6.6126037 -46.37055383 6.20302848 -43.60546875 5.34765625 C-42.8259082 5.10345947 -42.04634766 4.8592627 -41.24316406 4.60766602 C-40.40881836 4.35428467 -39.57447266 4.10090332 -38.71484375 3.83984375 C-37.43625488 3.44720337 -37.43625488 3.44720337 -36.13183594 3.04663086 C-34.39870425 2.51652131 -32.6646529 1.98940899 -30.9296875 1.46533203 C-28.72671872 0.79457866 -26.53270577 0.10134748 -24.33984375 -0.6015625 C-23.14359375 -0.97152344 -21.94734375 -1.34148437 -20.71484375 -1.72265625 C-19.14476562 -2.21572266 -19.14476562 -2.21572266 -17.54296875 -2.71875 C-11.45227493 -3.8394995 -5.76028019 -1.91641855 0 0 Z " fill="#FED223" transform="translate(108.46484375,143.28515625)"/>
<path d="M0 0 C0.33 0 0.66 0 1 0 C1.33 21.45 1.66 42.9 2 65 C3.65 65.33 5.3 65.66 7 66 C7 66.33 7 66.66 7 67 C6.33718018 67.10159424 5.67436035 67.20318848 4.99145508 67.30786133 C-3.06099489 68.64299354 -10.50377783 70.9997136 -18.18945312 73.69726562 C-23.16087336 75.36596984 -26.78333532 76.58160185 -32 75 C-27.73338107 72.15558738 -23.11711761 70.970326 -18.25 69.4375 C-16.78433594 68.96280273 -16.78433594 68.96280273 -15.2890625 68.47851562 C-14.33257812 68.17494141 -13.37609375 67.87136719 -12.390625 67.55859375 C-11.0917334 67.14565063 -11.0917334 67.14565063 -9.76660156 66.72436523 C-6.56851668 65.88702691 -3.27266019 65.46752288 0 65 C0 43.55 0 22.1 0 0 Z " fill="#9ED3E8" transform="translate(49,151)"/>
<path d="M0 0 C10.0228496 2.9288327 20.02966768 5.8961922 30 9 C29.67 9.99 29.34 10.98 29 12 C28.21302734 11.76216797 28.21302734 11.76216797 27.41015625 11.51953125 C26.63542969 11.28621094 25.86070312 11.05289063 25.0625 10.8125 C23.71671875 10.40644531 23.71671875 10.40644531 22.34375 9.9921875 C19.78473312 9.23285305 17.22310471 8.48976716 14.65625 7.7578125 C13.52110962 7.43139771 13.52110962 7.43139771 12.36303711 7.09838867 C10.84421552 6.66206796 9.32420776 6.22985281 7.80297852 5.80200195 C4.47071587 4.84032698 1.90840252 3.93893501 -1 2 C-0.67 1.34 -0.34 0.68 0 0 Z " fill="#A8E0F7" transform="translate(230,215)"/>
<path d="M0 0 C0.80824219 0.10183594 1.61648437 0.20367187 2.44921875 0.30859375 C3.06410156 0.39238281 3.67898437 0.47617188 4.3125 0.5625 C4.3125 0.8925 4.3125 1.2225 4.3125 1.5625 C-2.1225 2.0575 -2.1225 2.0575 -8.6875 2.5625 C-6.80760684 -1.19728632 -3.63897564 -0.474649 0 0 Z " fill="#AEE2F7" transform="translate(51.6875,216.4375)"/>
<path d="M0 0 C0.66 0.33 1.32 0.66 2 1 C2 1.99 2 2.98 2 4 C1.01 4.495 1.01 4.495 0 5 C-2.625 4.0625 -2.625 4.0625 -5 3 C-3 1 -3 1 0 0 Z " fill="#FEDD5C" transform="translate(152,149)"/>
</svg>
